# xmcd
#
# Track frame offsets: 
#        150
#        20671
#        33676
#        49574
#        68110
#        94906
#        106996
#        125807
#        144480
#        157812
#        187898
#        198675
#        212223
#        227345
#        245699
#        267977
#        281111
#        294235
#
# Disc length: 4193 seconds
#
# Revision: 0
# Processed by: cddbd v1.5.2PL0 Copyright (c) Steve Scherf et al.
# Submitted via: ExactAudioCopy v1.0b3
#
DISCID=0f105f12
DTITLE=Various Artist - Salsa Dance Class CD2
DYEAR=1900
DGENRE=Salsa
TTITLE0=Ibrahim Ferrer Con Los Bocucos - 01 Compositor Confundido
TTITLE1=Rubén González - 02 Bilongo
TTITLE2=Beny Moré Y Orquesta De Damaso Perez Prado - 03 Qué Te Pasa Jo
TTITLE2=sé
TTITLE3=Ritmo Alegria - 04 Bongo
TTITLE4=05 El Bongosero Mentirosa
TTITLE5=Conjunto Senén Suárez - 06 Ritmo En La Habana
TTITLE6=Ritmo Alegria - 07 Mueve La Cintura
TTITLE7=Compay Segubdo - 08 Pena
TTITLE8=Orquesta Riverside - 09 Anda Machetero
TTITLE9=Ritmo Alegria - 10 Desenganos De La Vida
TTITLE10=Beny Moré - 11 Yiri Yiri Bon#
TTITLE11=Ibrahim Ferrer - 12 El Botellero
TTITLE12=Trio Habaney - 13 Adios Compay Cato
TTITLE13=Ritmo Alegria - 14 El Hospital Del Amor
TTITLE14=Orquesta Reve - 15 Salgado
TTITLE15=Rubén González - 16 Pace Pelo
TTITLE16=Compay Segundo - 17 Francisco Guayabal
TTITLE17=Los Karachi - 18 El Reto
EXTD=
EXTT0=
EXTT1=
EXTT2=
EXTT3=
EXTT4=
EXTT5=
EXTT6=
EXTT7=
EXTT8=
EXTT9=
EXTT10=
EXTT11=
EXTT12=
EXTT13=
EXTT14=
EXTT15=
EXTT16=
EXTT17=
PLAYORDER=
